Coordinates
version=1
nRows=12
nColumns=24
inDegrees=yes

Units are S.I. units (second, meters, Newtons, ...)
Angles are in degrees.

endheader
time	pelvis_tilt	pelvis_list	pelvis_rotation	pelvis_tx	pelvis_ty	pelvis_tz	hip_flexion_r	hip_adduction_r	hip_rotation_r	knee_angle_r	ankle_angle_r	subtalar_angle_r	mtp_angle_r	hip_flexion_l	hip_adduction_l	hip_rotation_l	knee_angle_l	ankle_angle_l	subtalar_angle_l	mtp_angle_l	lumbar_extension	lumbar_bending	lumbar_rotation
      0.98316667	      0.10171423	     -7.12175140	     -3.92902677	     -0.14469994	      0.99882584	      0.32485295	    -13.34495236	      8.06040466	     -3.23029688	     -8.19083726	      6.49421576	     -4.64190904	     -2.21936308	     23.85541318	     -8.19222318	    -10.16587096	     -2.90463843	      0.11311138	    -10.22638237	    -14.78260970	    -10.33711731	      8.48582205	     10.76182301
      0.98733333	      0.13254801	     -7.15918652	     -4.09491985	     -0.13890725	      0.99809108	      0.32506390	    -13.42082679	      7.99359302	     -3.09515334	     -8.85658443	      6.66385464	     -4.50965602	     -2.14327489	     23.71757984	     -8.25213442	     -9.98878456	     -2.96298988	      0.12841738	    -10.27053730	    -14.75819264	    -10.39288679	      8.44209883	     10.76056678
      0.99150000	      0.16604788	     -7.07719200	     -4.30784768	     -0.13289776	      0.99748283	      0.32530179	    -13.47221133	      7.76914181	     -3.03959879	     -9.57919190	      6.84602915	     -4.13835593	     -1.92959909	     23.51262138	     -8.19754242	     -9.87208884	     -3.00605869	      0.01250305	    -10.41585966	    -14.68547451	    -10.41595068	      8.24492063	     10.92289326
      0.99566667	      0.26211216	     -7.00525597	     -4.47899971	     -0.12698202	      0.99697730	      0.32552428	    -13.57302950	      7.56490084	     -2.97084843	    -10.31868289	      6.98894047	     -3.88099899	     -1.62710170	     23.29384050	     -8.14400493	     -9.73743301	     -3.19845299	     -0.08924005	    -10.59733380	    -14.57395556	    -10.52926590	      8.03175525	     11.06783295
      0.99983333	      0.30809203	     -6.97813087	     -4.63499812	     -0.12108503	      0.99642303	      0.32578573	    -13.60672653	      7.42855911	     -2.85467976	    -11.08312065	      7.06562644	     -3.80140371	     -1.54208466	     23.16990252	     -8.14542873	     -9.59514008	     -3.52432959	     -0.11158948	    -10.69565139	    -14.54104670	    -10.57255694	      7.89446904	     11.06484795
      1.00400000	      0.44757500	     -6.83392682	     -4.82537125	     -0.11503545	      0.99612037	      0.32604682	    -13.71679985	      7.12764771	     -2.80929287	    -11.87052535	      7.07552183	     -3.52805948	      4.61761069	     22.88348848	     -8.02455012	     -9.53673918	     -3.79843584	     -0.31258255	    -10.90787636	    -11.92310364	    -10.71872272	      7.60331605	     11.16615020
      1.00816667	      0.47243512	     -6.72989153	     -5.00267632	     -0.10906388	      0.99565055	      0.32631484	    -13.67029538	      6.89507452	     -2.71907293	    -12.72914644	      7.09710453	     -3.33960953	      4.64826112	     22.77412905	     -7.95020960	     -9.43111519	     -4.20202291	     -0.51450199	    -11.17506848	    -11.89484339	    -10.72613182	      7.36373295	     11.26676963
      1.01233333	      0.53628410	     -6.63380912	     -5.15463972	     -0.10312245	      0.99527497	      0.32657168	    -13.65045982	      6.67603129	     -2.61818155	    -13.60374364	      7.08656947	     -3.19179200	      4.68075381	     22.65005846	     -7.87971958	     -9.34106456	     -4.68729774	     -0.66269333	    -11.38792912	    -11.87224841	    -10.79234443	      7.13162747	     11.27527493
      1.01650000	      0.60069111	     -6.48569436	     -5.31222089	     -0.09708973	      0.99497345	      0.32681523	    -13.60121551	      6.39053853	     -2.57111780	    -14.52422562	      7.01620648	     -2.97096049	      4.74215153	     22.50297232	     -7.75288682	     -9.28429716	     -5.15524276	     -0.92909858	    -11.67679922	    -11.83484592	    -10.83007882	      6.83768110	     11.31146599
      1.02066667	      0.68984106	     -6.33135629	     -5.41608227	     -0.09105399	      0.99473972	      0.32691248	    -13.55227695	      6.09738797	     -2.59950268	    -15.47581370	      6.86264394	     -2.74968782	      4.86525565	     22.34050879	     -7.59106168	     -9.17864182	     -5.63619499	     -1.25287919	    -12.00917883	    -11.76268263	    -10.88912024	      6.55026863	     11.35784641
      1.02483333	      0.76542750	     -6.18706750	     -5.51297440	     -0.08505857	      0.99451957	      0.32706799	    -13.46947366	      5.83026604	     -2.57813677	    -16.45073995	      6.67180384	     -2.59895323	      4.96510614	     22.23442549	     -7.45321095	     -9.13892673	     -6.21881016	     -1.53019308	    -12.31414709	    -11.71031917	    -10.94700550	      6.25417045	     11.31543750
      1.02900000	      0.85218270	     -6.02320646	     -5.47587700	     -0.07904172	      0.99430744	      0.32680040	    -13.36160761	      5.53500352	     -2.79737836	    -17.47619954	      6.43324528	     -2.32373542	      5.36384881	     22.12472143	     -7.21309899	     -8.87973866	     -6.75081698	     -1.97369611	    -12.82170311	    -11.50604962	    -10.99707174	      5.98214374	     11.30586794
